# xmcd
#
# Track frame offsets:
#	150
#	19062
#	31514
#
# Disc length: 709 seconds
#
# Revision: 0
# Processed by: cddbd v1.5.2PL0 Copyright (c) Steve Scherf et al.
# Submitted via: dBpowerAMP V4.0
#
DISCID=1302c303
DTITLE=Kasey Chambers - The Captain
DYEAR=2000
DGENRE=Country
TTITLE0=The Captain
TTITLE1=Freight Train
TTITLE2=Water In The Fuel
EXTD=
EXTT0=
EXTT1=
EXTT2=
PLAYORDER=
